#!OML:ASF F:\VICON\USERDATA\INSTALL\rory3\rory3.ASF
:FULLY-SPECIFIED
:DEGREES
28
root -0.005485455721568 17.807151232482727 -3.741118930052197 -1.989789931646866 -4.9748800800614035 -5.760436926786467
lfemur -25.733485150261025 0.7235856668483458 -13.283403866425038
ltibia 40.46380751668913
lfoot -7.969111798823258 3.107164273144529
ltoes -7.680643065423652
rfemur -5.362194591359248 7.05885839188122 32.54558801824363
rtibia 37.99400353348425
rfoot -2.356905514110263 -9.278736162345819
rtoes 9.376255007160598
lowerback 1.0 1.307275008351531 2.1551003912482765
upperback 0.552980989701969 2.291202730642114 1.0894103666490988
thorax -5.205763289308948 1.1410922559142676 -0.9534789012955627
lowerneck -15.396856715952861 -3.3043313309296525 -1.2627212247555355
upperneck 22.523423037884942 -4.412698899189357 0.0665008128733039
head 9.82318355103192 -2.0966857831096086 -0.33481571196553706
lclavicle -1.8287200419134786e-15 -1.4577698026162634e-16
lhumerus -37.68663035772426 7.864922280433248 82.032866860264
lradius 24.153868574446903
lwrist 5.164137527968242
lhand -26.351318722797437 25.34632672719392
lfingers nan
lthumb 0.5006213210432628 55.46930545992346
rclavicle -1.9051416468342875e-15 -2.2323912181068374e-16
rhumerus -22.929460370860525 -19.151179938189802 -70.63273623673928
rradius 29.906344174354437
rwrist 4.333751996223544
rhand -18.39177435390164 1.0
rfingers nan
rthumb 8.207253058736407 -7.1137450425919635
29
root -0.0006162558847045974 17.810244883169815 -3.312034220309526 -1.8541527770906368 -4.984259380005457 -6.096505696647219
lfemur -25.081713242999072 0.2743433751212221 -13.67839876544581
ltibia 33.54177086385114
lfoot -6.573219319761332 1.8509136047905987
ltoes -10.165170327626742
rfemur -5.72921961118365 7.102385930878036 32.66612195518456
rtibia 44.48796865346811
rfoot -2.50893478578762 -11.426293693912537
rtoes 9.086504439383322
lowerback 1.0 1.40717327058601 2.496037585465819
upperback 0.575257328016235 2.3637549370061564 1.253878379371757
thorax -5.136628212489578 1.123689650577761 -1.235106156115156
lowerneck -15.520463151729233 -3.32975060495294 -1.2864591149505142
upperneck 22.64583107607568 -4.492377405170271 0.17955766795211886
head 9.945776362353698 -2.1128679263931596 -0.31644821002531265
lclavicle -1.807831443260216e-15 -1.2866775886779363e-16
lhumerus -37.27860644617851 7.915025166597792 81.93450136789806
lradius 24.99909375293578
lwrist 4.690601921553394
lhand -26.226765161035246 25.27714826037842
lfingers nan
lthumb 0.554549730840705 55.30791592739239
rclavicle -1.849062161440308e-15 -1.768105527590338e-16
rhumerus -22.93044266568664 -17.779910675074625 -70.2550071146084
rradius 31.12788215286878
rwrist 6.941044015219477
rhand -18.393224538056963 1.0
rfingers nan
rthumb 8.348072487038632 -7.218611302228041
30
root 0.01368144420557027 17.819813354004914 -2.016887782448915 -1.834409193367374 -4.958796831878416 -6.105883904665703
lfemur -23.08660111662383 -0.24070766996426496 -14.603541666337204
ltibia 27.424959967606995
lfoot -5.25788574725232 0.2383057780110689
ltoes -10.443331070827693
rfemur -6.152960471346969 7.03407269815912 32.492206511136764
rtibia 50.13190639423375
rfoot -3.3729678945348454 -12.29812810875466
rtoes 7.860989077937518
lowerback 1.0 1.5301507446466946 2.6804302231140698
upperback 0.4788721056933686 2.4118751455708045 1.191942760216637
thorax -5.1284914193885855 1.1397101666515073 -1.2361065362276502
lowerneck -15.409342262253345 -3.3071224689645264 -1.2648606604059869
upperneck 22.736236588194753 -4.464423820963823 0.255998644333901
head 10.022366924313154 -2.100277779893794 -0.29751588170176035
lclavicle -1.8241941019774043e-15 -1.4419052693870972e-16
lhumerus -36.553042542409194 7.213461987552145 81.93720179876769
lradius 25.903242022802253
lwrist 4.599840656018641
lhand -26.21697534548491 25.298360145483535
lfingers nan
lthumb 0.6196542254801303 55.423412421017595
rclavicle -1.844894110563604e-15 -1.7638854692299704e-16
rhumerus -23.13721355248303 -17.10287795141086 -70.2667814835861
rradius 31.70156923254649
rwrist 8.788805788680577
rhand -18.417155968336537 1.0
rfingers nan
rthumb 8.38231264471521 -7.3291761087130425
31
root 0.04426063785618689 17.829204669389046 -0.20880949491219702 -2.0640738349731964 -4.759027023405694 -5.692265024195128
lfemur -20.83248328692278 -0.6301415081687263 -15.283354195304863
ltibia 22.979644899649713
lfoot -3.9497688685483316 -1.8294132430070664
ltoes -10.041625737366159
rfemur -6.553907435075675 6.785409977282606 31.91896214094455
rtibia 54.74615642886127
rfoot -4.547238637717635 -11.333058493379333
rtoes 7.073434441954678
lowerback 1.0 1.6340028945547092 2.658453696100737
upperback 0.4133213299776691 2.5112403588511882 1.0930129187210023
thorax -5.0172570203853795 1.1761689301057485 -1.184311792071309
lowerneck -15.46406633272586 -3.312283387288238 -1.3021746404425665
upperneck 22.90649851908591 -4.469527330442698 0.36508855584528777
head 10.249286918784643 -2.0899096615873107 -0.25527946006903013
lclavicle -1.8200974838133463e-15 -1.3978303935657753e-16
lhumerus -35.4433604509497 5.972413665087716 82.05128235903422
lradius 26.78680048493373
lwrist 4.299814441362154
lhand -26.49833695244958 25.261992545071536
lfingers nan
lthumb 0.2806548188406499 55.335057899486394
rclavicle -1.8887104721322644e-15 -2.1154022238547213e-16
rhumerus -23.772648573859207 -16.259351583965092 -71.0737274759208
rradius 31.642369912730672
rwrist 10.523357955692617
rhand -18.349350114617913 1.0
rfingers nan
rthumb 8.475377061754498 -7.429908883724429
32
root 0.11350203310079626 17.848157787876588 3.017825298823782 -2.3839202171681255 -4.20610904414109 -4.656502084843299
lfemur -18.655379712913764 -1.1177025320725382 -16.793686778338458
ltibia 20.699587437213182
lfoot -3.135572943160577 -3.13510328200674
ltoes -8.954602028222345
rfemur -7.2892987666936735 6.083643777157715 30.421427699028396
rtibia 58.19873812223167
rfoot -5.39619184271127 -9.069214016998018
rtoes 6.7785418534420145
lowerback 1.0 1.6250005907851843 2.396536203337262
upperback 0.41415311719495485 2.4015893376124224 1.0391622172045503
thorax -4.923513336438346 1.1466426254986084 -1.0449237170012964
lowerneck -15.476458532038215 -3.259698552777629 -1.2890061591745245
upperneck 22.77797463089822 -4.409740234165258 0.4316710875545503
head 10.17122105337732 -2.062372692276612 -0.21135306854597227
lclavicle -1.812150712448844e-15 -1.3153105046037178e-16
lhumerus -34.11016653100628 4.411081682416622 82.06803401045333
lradius 27.517640955666614
lwrist 3.901934044387719
lhand -26.87105457111106 25.10476644721694
lfingers nan
lthumb -0.07515901599521813 55.30779837262154
rclavicle -1.8588795472838336e-15 -1.8525229642432927e-16
rhumerus -24.42595405001604 -15.940701888095587 -72.22114846369038
rradius 31.196268556765684
rwrist 9.91268807187495
rhand -18.266258056839465 1.0
rfingers nan
rthumb 8.509676743286844 -7.704372383395772
33
root 0.18075926205668574 17.86835804415447 5.856822082800383 -2.621467311579891 -3.699696933855149 -4.122957183330076
lfemur -16.441688640681484 -1.647185034339347 -18.06003178609475
ltibia 20.357066816531727
lfoot -3.0924397408856272 -3.8056152267209526
ltoes -8.41701066441069
rfemur -8.170953117592036 5.373348035360645 29.170511909435103
rtibia 60.52324498357278
rfoot -5.774854914785871 -6.413046597490624
rtoes 7.37599994890296
lowerback 1.0 1.652019068526216 2.4820582006862875
upperback 0.2874320134975217 2.380990656835303 0.9753642067027644
thorax -5.022385302831953 1.1350794210062516 -0.9708070358643726
lowerneck -15.600000846888397 -3.257926143463379 -1.2805876692134532
upperneck 23.074390328859106 -4.410810418701109 0.5022590691197919
head 10.230447328698418 -2.058646412969106 -0.17757103429342194
lclavicle -1.8289933380929346e-15 -1.4617119496660185e-16
lhumerus -32.563791386626264 3.0893854412606103 82.15058166110595
lradius 28.319356811280734
lwrist 3.493546438151105
lhand -27.237584506735246 25.554768535963383
lfingers nan
lthumb -0.43549314134310435 55.778006945693086
rclavicle -1.8836074480244575e-15 -2.057291052566673e-16
rhumerus -24.93648817396734 -15.628925470645466 -73.83255464153486
rradius 30.36510934025711
rwrist 9.28317859469007
rhand -18.175227702569877 1.0
rfingers nan
rthumb 8.543532057051566 -7.91743946753411
34
root 0.24339712900401894 17.877704465485934 8.556609454137579 -2.8547011443014365 -3.1356584066616393 -3.2035687139671554
lfemur -13.883517715458959 -2.215489501363691 -19.54708419250313
ltibia 21.277531683105543
lfoot -4.618363757915898 -4.819020474126633
ltoes -6.778127397228656
rfemur -10.30284788846693 4.2907854693529615 26.65158227716117
rtibia 62.409084629716055
rfoot -6.698447118409537 -4.380204043161542
rtoes 7.9718376705434775
lowerback 1.0 1.49192386472481 2.1307884830140806
upperback 0.2022430393651141 2.076340163583671 0.9923733453580835
thorax -5.088783246781895 1.057606702901088 -0.6197002711409418
lowerneck -15.767564328528458 -3.2422715700967535 -1.2665724914754657
upperneck 22.995482853863752 -4.37453784469896 0.5951037935399089
head 10.214257524858613 -2.036844481909521 -0.12343905759260898
lclavicle -1.794118270646243e-15 -1.1341027342076092e-16
lhumerus -30.705159131736828 1.5982772859347287 82.03175058356732
lradius 28.909718936873432
lwrist 3.1451125185848685
lhand -27.348651166715396 25.79562102839201
lfingers nan
lthumb -0.5242627096864712 56.06843803934586
rclavicle -1.8765722496202085e-15 -1.969235162982658e-16
rhumerus -25.420599633393966 -15.870677747434005 -75.33348689200056
rradius 29.162253248174505
rwrist 7.534728135376014
rhand -18.078862575920216 1.0
rfingers nan
rthumb 8.541383720661251 -7.982442712195675
